<?xml version="1.0" ?><svg width="64px" height="64px" viewBox="0 0 64 64" xmlns="http://www.w3.org/2000/svg"><defs><style>.cls-1{fill:#fdbf00;}.cls-2{fill:#f03800;}.cls-3{fill:#fd9200;}.cls-4{fill:#d8d8fc;}</style></defs><title/><g id="gift"><path class="cls-1" d="M41,39h5a1,1,0,0,1,1,1V55H57V25H41Z"/><polygon class="cls-1" points="27 25 11.001 25 11.014 39 27 39 27 25"/><path class="cls-2" d="M44,11.091V5H38.5A3.715,3.715,0,0,0,35,8.859V15h5.5A3.721,3.721,0,0,0,44,11.091Z"/><path class="cls-2" d="M27.5,15H33V8.909A3.721,3.721,0,0,0,29.5,5H24v6.091A3.721,3.721,0,0,0,27.5,15Z"/><rect class="cls-2" height="14" width="10" x="29" y="25"/><rect class="cls-3" height="6" width="16" x="41" y="17"/><rect class="cls-3" height="6" width="16" x="11" y="17"/><rect class="cls-2" height="6" width="10" x="29" y="17"/><path class="cls-4" d="M19,45a1,1,0,0,1-2,0V41H7V59H17V55a1,1,0,0,1,2,0v4H45V41H19ZM11,56a1,1,0,0,1-2,0V44a1,1,0,0,1,2,0Zm4.015,0a1,1,0,0,1-2,0V44a1,1,0,0,1,2,0ZM19,52a1,1,0,0,1-2,0V48a1,1,0,0,1,2,0Zm12.99,1H22a1,1,0,0,1,0-2h9.99a1,1,0,0,1,0,2ZM37,44.7V44a1,1,0,0,1,2,0v.7a3.233,3.233,0,0,1,2.229,3.071,1,1,0,0,1-2,0A1.229,1.229,0,1,0,38,49a3.229,3.229,0,0,1,1,6.3V56a1,1,0,0,1-2,0v-.7a3.231,3.231,0,0,1-2.229-3.07,1,1,0,0,1,2,0A1.229,1.229,0,1,0,38,51a3.229,3.229,0,0,1-1-6.3ZM32.99,48a1,1,0,0,1-1,1H22a1,1,0,0,1,0-2h9.99A1,1,0,0,1,32.99,48Z"/><path d="M18,47a1,1,0,0,0-1,1v4a1,1,0,0,0,2,0V48A1,1,0,0,0,18,47Z"/><path d="M58,15H44.622A6.129,6.129,0,0,0,46,11.091V4a1,1,0,0,0-1-1H38.5A5.4,5.4,0,0,0,34,5.513,5.4,5.4,0,0,0,29.5,3H23a1,1,0,0,0-1,1v7.091A6.129,6.129,0,0,0,23.378,15H10a1,1,0,0,0-1,1l.014,23H6a1,1,0,0,0-1,1V60a1,1,0,0,0,1,1H46a1,1,0,0,0,1-1V57H58a1,1,0,0,0,1-1V16A1,1,0,0,0,58,15ZM45,59H19V55a1,1,0,0,0-2,0v4H7V41H17v4a1,1,0,0,0,2,0V41H45ZM24,5h5.5A3.721,3.721,0,0,1,33,8.909V15H27.5A3.721,3.721,0,0,1,24,11.091ZM35,8.859A3.715,3.715,0,0,1,38.5,5H44v6.091A3.721,3.721,0,0,1,40.5,15H35ZM11,25H27V39H11.014ZM39,39H29V25H39Zm0-16H29V17H39ZM11,17H27v6H11ZM57,55H47V40a1,1,0,0,0-1-1H41V25H57Zm0-32H41V17H57Z"/><path d="M22,47a1,1,0,0,0,0,2h9.99a1,1,0,0,0,0-2Z"/><path d="M31.99,51H22a1,1,0,0,0,0,2h9.99a1,1,0,0,0,0-2Z"/><path d="M10,43a1,1,0,0,0-1,1V56a1,1,0,0,0,2,0V44A1,1,0,0,0,10,43Z"/><path d="M14.015,43a1,1,0,0,0-1,1V56a1,1,0,0,0,2,0V44A1,1,0,0,0,14.015,43Z"/><path d="M38,51a1.229,1.229,0,1,1-1.229,1.229,1,1,0,0,0-2,0A3.231,3.231,0,0,0,37,55.3V56a1,1,0,0,0,2,0v-.7A3.229,3.229,0,0,0,38,49a1.228,1.228,0,1,1,1.229-1.228,1,1,0,0,0,2,0A3.233,3.233,0,0,0,39,44.7V44a1,1,0,0,0-2,0v.7A3.229,3.229,0,0,0,38,51Z"/></g></svg>